<?xml version="1.0" standalone="no"?>
<!DOCTYPE svg PUBLIC "-//W3C//DTD SVG 20010904//EN"
 "http://www.w3.org/TR/2001/REC-SVG-20010904/DTD/svg10.dtd">
<svg version="1.0" xmlns="http://www.w3.org/2000/svg"
 width="803.000000pt" height="803.000000pt" viewBox="0 0 803.000000 803.000000"
 preserveAspectRatio="xMidYMid meet">
<metadata>
Created by potrace 1.14, written by Peter Selinger 2001-2017
</metadata>
<g transform="translate(0.000000,803.000000) scale(0.100000,-0.100000)"
fill="#000000" stroke="none">
<path d="M3359 6935 c-106 -17 -181 -36 -324 -82 -116 -37 -173 -63 -269 -121
-47 -28 -62 -33 -75 -24 -44 32 -152 81 -199 91 -154 33 -324 -17 -498 -147
-175 -130 -283 -295 -328 -503 -5 -25 -11 -27 -98 -39 -414 -56 -675 -231
-841 -565 -54 -109 -101 -249 -124 -366 l-17 -87 -58 -43 c-33 -24 -97 -82
-143 -130 -181 -191 -300 -428 -357 -712 -29 -146 -32 -415 -5 -550 20 -101
67 -237 108 -317 94 -183 243 -317 409 -366 l50 -15 0 -545 0 -545 53 3 52 3
3 494 2 493 48 -73 c102 -155 252 -298 415 -394 82 -49 86 -54 268 -285 l184
-235 43 -3 42 -3 0 163 0 163 235 0 235 0 0 -162 0 -163 50 0 50 0 0 173 0
174 101 26 c56 15 145 44 198 65 l96 39 62 -106 c112 -193 111 -191 136 -191
18 0 31 15 61 65 21 36 39 65 40 65 2 0 63 -20 137 -44 74 -24 182 -52 241
-62 l107 -17 3 -91 3 -91 50 0 50 0 3 86 3 86 113 6 c98 6 198 20 313 43 l32
6 3 -113 3 -114 53 -3 52 -3 0 134 0 135 58 23 c83 33 210 97 260 131 l43 30
49 -18 50 -18 2 -205 3 -206 53 -3 52 -3 0 187 0 186 23 -6 c267 -80 449 -100
628 -70 l36 6 119 -151 118 -152 41 3 40 3 3 232 2 233 63 62 c66 67 163 184
214 258 17 25 50 63 72 84 l41 40 35 -34 35 -34 2 -420 3 -421 245 -3 c405 -5
547 17 703 109 157 93 281 271 302 435 l7 51 67 32 c264 130 440 379 508 719
24 121 24 385 0 502 -53 249 -157 463 -315 647 -58 68 -61 73 -52 104 15 50
12 178 -5 259 -54 258 -196 511 -393 702 -152 148 -322 251 -487 296 l-69 19
-51 87 c-112 195 -261 357 -443 486 -170 120 -313 180 -431 180 -48 0 -50 1
-77 47 -61 104 -176 200 -292 243 -90 34 -273 61 -412 61 -102 1 -140 5 -205
24 -244 73 -470 59 -672 -41 l-91 -45 -54 35 c-68 43 -160 82 -240 101 -93 22
-258 27 -359 10z m288 -191 c64 -13 194 -62 211 -79 3 -2 -31 -44 -75 -92 -43
-48 -109 -124 -145 -168 -93 -113 -205 -218 -263 -247 -51 -26 -159 -54 -227
-59 l-37 -3 -59 119 c-63 129 -127 238 -173 296 -16 20 -29 42 -29 48 0 37
388 173 555 194 74 9 172 6 242 -9z m792 -46 c-24 -17 -74 -57 -110 -89 l-66
-58 -48 49 c-27 27 -47 51 -44 54 2 2 23 13 47 25 60 31 138 50 206 50 l59 1
-44 -32z m927 -103 c42 -20 87 -52 109 -76 l38 -42 -89 -27 c-49 -15 -115 -37
-146 -49 -85 -31 -84 -31 -92 51 -5 59 -22 114 -62 205 -9 20 166 -24 242 -62z
m-518 46 c43 -22 93 -73 115 -116 17 -35 37 -132 37 -185 0 -35 -2 -36 -92
-83 -51 -25 -136 -69 -188 -96 -139 -73 -132 -73 -199 -5 -31 33 -78 94 -105
136 l-48 78 31 39 c70 88 228 196 339 232 72 23 66 23 110 0z m-2344 -41 c25
-10 46 -23 46 -27 0 -4 -21 -35 -46 -68 -62 -82 -119 -203 -143 -304 -11 -46
-21 -84 -23 -86 -9 -6 -478 20 -478 27 0 5 9 37 21 71 23 70 58 133 103 191
34 43 167 146 227 177 101 51 203 58 293 19z m1598 -157 l50 -63 -20 -27 c-31
-44 -129 -244 -171 -350 -51 -129 -122 -349 -172 -531 -22 -81 -42 -154 -45
-163 -3 -12 -41 -27 -122 -48 -64 -18 -124 -34 -133 -37 -12 -3 -24 13 -47 64
l-31 69 25 48 c46 92 22 156 -79 210 l-59 30 -54 129 c-30 71 -54 133 -54 137
0 5 13 9 29 9 49 0 203 49 269 86 81 46 170 129 296 279 56 66 130 150 165
188 74 78 65 80 153 -30z m-1347 -104 c26 -39 70 -113 97 -165 l50 -94 -75 0
c-40 0 -122 3 -181 7 l-107 6 7 41 c18 109 122 308 150 285 6 -5 33 -41 59
-80z m2839 -56 c21 -71 66 -449 54 -458 -2 -1 -71 -14 -154 -29 -83 -15 -222
-45 -309 -66 -87 -22 -160 -38 -162 -36 -3 2 16 55 40 118 52 130 94 261 103
317 6 38 9 40 78 66 101 37 308 103 328 104 9 1 19 -7 22 -16z m341 -29 c150
-74 382 -276 473 -413 23 -35 42 -67 42 -72 0 -5 -15 -9 -32 -9 -18 0 -73 -7
-122 -14 -83 -14 -91 -14 -137 4 -61 24 -188 57 -256 66 -60 8 -58 1 -68 159
-4 50 -15 141 -26 203 -10 63 -19 116 -19 119 0 13 81 -11 145 -43z m-1534
-245 c65 -64 127 -92 198 -92 69 1 129 24 251 96 52 31 96 52 98 48 4 -12 -71
-213 -125 -338 -45 -103 -45 -103 -92 -117 -63 -19 -474 -148 -645 -202 -76
-24 -140 -43 -142 -41 -5 5 70 258 114 387 48 140 99 265 153 372 l40 80 51
-74 c29 -40 73 -94 99 -119z m-2085 -85 c20 -5 22 -15 29 -97 3 -51 12 -122
19 -158 l12 -67 -75 -12 c-62 -10 -199 -39 -447 -97 -20 -4 -21 1 -27 79 -9
107 -9 228 0 308 l6 63 231 -7 c127 -4 241 -10 252 -12z m-686 -162 c0 -88 3
-199 6 -249 l7 -90 -73 -22 c-40 -12 -114 -44 -165 -70 l-92 -48 -149 -5
c-137 -5 -158 -8 -257 -41 l-108 -35 6 31 c4 18 23 73 42 122 102 260 272 436
494 511 74 25 200 51 257 53 l32 1 0 -158z m1252 133 l117 0 41 -105 c23 -58
44 -111 47 -117 4 -10 -23 -13 -113 -13 -110 0 -290 -12 -375 -26 l-35 -5 -12
78 c-7 43 -15 106 -18 141 l-7 63 119 -8 c65 -4 172 -8 236 -8z m3023 -281
c-45 -35 -55 -36 -55 -9 0 22 4 25 38 25 35 -1 36 -1 17 -16z m-261 -86 l-7
-93 -99 -120 c-55 -66 -125 -159 -156 -206 l-57 -87 -65 -7 c-126 -13 -426
-55 -497 -69 -40 -7 -73 -12 -73 -10 0 12 224 511 234 520 11 11 243 78 381
110 94 22 272 52 313 53 l34 1 -8 -92z m934 0 c56 -149 87 -296 98 -462 l7
-109 -24 6 c-13 4 -61 15 -107 24 l-84 18 7 30 c37 187 15 412 -50 512 -8 12
-15 25 -15 28 0 3 33 5 74 5 l75 0 19 -52z m-353 -40 c54 -64 79 -156 72 -272
-3 -50 -10 -115 -17 -144 -11 -48 -14 -53 -34 -48 -11 3 -103 11 -202 18
l-182 11 -7 150 c-7 150 -7 150 16 168 71 54 271 157 306 159 6 0 28 -19 48
-42z m670 -27 c247 -141 467 -437 540 -726 40 -158 43 -156 -87 -68 -120 80
-283 163 -409 208 l-76 27 -6 131 c-7 143 -27 278 -57 399 -11 42 -20 79 -20
82 0 8 45 -13 115 -53z m-3741 -10 c14 -6 26 -17 26 -25 0 -8 -62 -76 -137
-151 l-136 -136 -51 6 c-61 8 -124 35 -148 62 -10 10 -35 66 -57 124 -39 103
-39 104 -18 111 74 25 462 31 521 9z m-701 -154 c22 -61 49 -130 62 -153 46
-78 120 -134 223 -164 23 -7 42 -14 42 -15 0 -2 -27 -58 -59 -126 -98 -203
-150 -376 -167 -547 l-7 -72 -91 -51 c-50 -28 -105 -60 -123 -71 l-32 -19 -24
38 c-13 21 -66 117 -117 213 -51 96 -132 245 -180 330 l-87 155 -17 155 c-10
85 -24 191 -31 235 -8 43 -12 81 -10 83 12 13 503 120 555 121 23 1 28 -8 63
-112z m2214 81 c-3 -7 -30 -69 -60 -138 -30 -69 -73 -175 -96 -235 l-42 -110
-257 -64 c-141 -34 -293 -73 -338 -85 l-81 -23 33 161 c19 89 39 183 46 210
l13 50 295 93 c162 52 333 107 380 123 97 32 114 35 107 18z m-3008 -224 c5
-47 4 -62 -3 -52 -6 8 -33 31 -59 51 l-49 37 34 14 c47 19 62 24 67 20 2 -2 7
-33 10 -70z m1614 46 c4 -16 0 -20 -18 -20 -13 0 -32 -3 -42 -6 -12 -4 -9 2
10 20 34 31 43 32 50 6z m2394 -147 c-3 -2 -25 -3 -51 -1 l-45 3 47 62 47 61
3 -60 c2 -33 1 -62 -1 -65z m-4567 33 c0 -2 -10 -25 -21 -51 -17 -39 -21 -62
-17 -119 6 -87 23 -122 128 -264 89 -119 141 -217 165 -307 20 -77 19 -121 -4
-171 -36 -78 -110 -107 -169 -65 -69 48 -212 66 -295 37 -28 -11 -39 -11 -42
-3 -50 150 -77 336 -82 574 -3 117 -3 223 1 236 4 19 23 32 83 57 127 54 253
92 253 76z m357 -68 c72 -48 137 -113 195 -191 60 -80 48 -24 118 -572 23
-176 48 -353 55 -392 l14 -73 -55 -51 c-30 -29 -130 -111 -223 -183 -93 -72
-191 -150 -218 -173 l-50 -42 -46 47 c-89 92 -187 236 -262 386 -41 82 -75
156 -75 166 0 21 27 30 90 30 34 0 59 -9 105 -37 115 -71 238 -51 346 56 180
180 135 467 -128 809 -63 83 -73 100 -73 136 0 45 23 86 67 122 26 20 31 21
60 9 18 -8 54 -29 80 -47z m2213 52 c0 -15 -31 -195 -35 -198 -2 -3 -80 168
-80 177 0 5 74 29 98 30 9 1 17 -3 17 -9z m-310 -82 c0 -7 33 -79 74 -160 40
-82 71 -150 68 -153 -3 -3 -21 -5 -41 -5 -49 0 -138 -43 -186 -90 -29 -28 -72
-52 -155 -85 -63 -25 -170 -71 -238 -101 -68 -31 -126 -54 -128 -52 -7 8 17
119 43 203 31 100 108 260 165 345 l44 65 110 12 c60 7 127 16 149 22 58 13
95 13 95 -1z m2328 -250 c14 -139 51 -332 82 -427 12 -35 18 -67 13 -71 -4 -4
-27 -12 -49 -17 -32 -8 -93 -4 -270 17 -126 16 -230 28 -230 29 -9 6 112 340
171 473 l47 107 56 4 c32 2 82 4 113 5 l55 2 12 -122z m392 112 c63 -6 121
-13 127 -15 10 -3 8 -19 -8 -62 -29 -78 -164 -395 -191 -447 l-21 -41 -18 40
c-37 84 -82 300 -95 455 l-7 80 49 0 c27 0 101 -5 164 -10z m-5485 -465 c9
-66 32 -178 49 -248 l32 -128 -24 -32 c-128 -172 -162 -441 -91 -731 10 -43
19 -83 19 -88 0 -21 -110 50 -165 107 -99 102 -162 230 -203 415 -24 109 -23
395 2 510 49 227 148 421 298 586 l53 57 6 -164 c3 -90 14 -218 24 -284z
m4605 357 c-21 -49 -64 -165 -96 -258 -31 -93 -61 -173 -65 -178 -11 -12 -109
9 -238 50 -160 52 -188 75 -202 164 -7 47 6 172 21 201 10 17 114 38 421 84
222 33 203 41 159 -63z m1353 49 c48 -10 90 -21 92 -23 11 -11 -40 -170 -80
-254 -24 -51 -47 -104 -51 -119 -8 -32 -1 -30 -150 -44 -67 -6 -129 -13 -138
-17 -12 -5 -8 10 15 62 27 58 142 341 162 397 8 22 37 21 150 -2z m382 -128
c155 -65 340 -171 430 -248 l30 -26 -48 -44 c-88 -81 -222 -131 -379 -142
l-86 -6 -43 37 c-24 20 -67 48 -96 63 -29 14 -53 29 -53 34 0 5 18 44 39 87
21 43 51 118 66 167 15 50 29 96 31 103 4 15 20 12 109 -25z m-2530 -90 c0
-109 2 -122 28 -175 34 -69 98 -128 181 -168 68 -32 205 -74 302 -92 99 -18
81 -33 -63 -53 -283 -39 -451 -30 -579 29 -48 23 -53 28 -101 128 -60 121
-139 227 -213 282 l-52 39 59 19 c85 27 395 107 418 107 19 1 20 -5 20 -116z
m-891 -170 c-20 -84 -107 -332 -143 -409 -47 -100 -123 -222 -129 -206 -6 19
28 304 48 392 10 47 28 111 40 142 20 54 24 58 73 76 104 39 119 40 111 5z
m349 -202 c61 -63 162 -152 192 -168 16 -9 79 -269 91 -375 l7 -58 -34 0 c-72
0 -221 -39 -303 -79 -101 -49 -190 -137 -226 -225 l-24 -56 -50 0 -51 0 -33
-60 c-28 -51 -37 -60 -60 -60 -30 0 -116 38 -159 69 l-28 21 22 162 c17 119
27 165 39 171 44 25 123 100 171 162 79 102 173 298 239 500 l57 174 44 -57
c24 -31 72 -86 106 -121z m-1788 -106 c10 -16 32 -47 47 -67 l29 -37 -58 -40
c-31 -23 -60 -38 -64 -34 -7 8 -31 138 -49 263 -6 41 -13 86 -16 100 -2 14 17
-15 44 -65 26 -49 57 -103 67 -120z m1041 168 c-19 -70 -32 -172 -51 -413 -9
-107 -17 -196 -19 -197 -9 -9 -133 -23 -157 -18 -22 5 -32 17 -52 68 -34 86
-53 157 -72 261 -26 149 -30 138 88 197 110 56 247 118 260 119 5 0 6 -8 3
-17z m4502 -69 c75 -98 166 -287 197 -409 90 -355 16 -732 -185 -948 -39 -42
-99 -95 -133 -117 l-61 -41 -27 84 c-14 47 -38 105 -53 130 -14 25 -26 48 -26
50 0 3 13 8 30 12 47 10 146 80 181 127 17 24 43 68 58 98 24 51 26 65 26 190
-1 145 -15 223 -61 313 -66 133 -205 237 -416 312 -43 15 -78 31 -78 35 0 4
22 10 49 14 123 16 284 91 371 173 30 29 60 51 65 49 6 -1 34 -33 63 -72z
m-1053 -51 l17 -26 -43 6 c-24 3 -93 12 -154 19 -93 10 -104 14 -70 19 22 3
83 7 136 8 94 1 97 0 114 -26z m-3946 -385 c6 -16 8 -28 4 -28 -15 0 -118 88
-164 141 l-50 58 78 45 77 46 22 -118 c12 -64 27 -129 33 -144z m3182 256 l66
-7 -44 -131 c-24 -72 -59 -196 -78 -276 -36 -157 -77 -265 -97 -257 -18 6
-556 144 -596 152 -24 5 -32 11 -28 23 2 10 12 51 21 92 9 41 27 109 40 150
13 41 29 94 35 118 9 35 15 42 35 42 36 0 297 47 410 74 111 26 140 29 236 20z
m544 -59 c284 -36 515 -78 527 -98 4 -7 8 -30 8 -51 0 -88 -78 -163 -247 -236
-137 -59 -139 -59 -153 -13 -36 110 -82 176 -224 321 -91 92 -98 102 -71 98
17 -3 89 -13 160 -21z m-1961 -64 c66 -12 300 -13 446 -2 52 4 96 7 97 6 4 -2
-90 -350 -96 -357 -3 -3 -53 2 -111 12 -58 10 -163 24 -235 31 -71 7 -133 15
-137 18 -3 3 -15 60 -27 126 -11 66 -23 135 -27 154 -6 30 -5 33 12 28 10 -3
46 -11 78 -16z m1753 -164 c116 -118 162 -189 166 -254 2 -35 1 -36 -51 -54
-89 -31 -182 -81 -231 -125 l-47 -42 -60 16 c-32 8 -60 16 -61 17 -2 1 8 30
22 66 14 35 39 120 56 189 38 158 80 300 88 300 4 0 57 -51 118 -113z m-3836
27 c101 -122 252 -230 375 -269 30 -9 54 -20 54 -24 0 -19 129 -200 185 -259
l62 -67 -13 -63 c-18 -86 -24 -92 -98 -92 -33 0 -133 -7 -221 -15 -243 -23
-207 -38 -303 130 -69 121 -87 145 -106 145 -20 0 -29 14 -64 103 -37 93 -112
326 -112 347 0 9 167 128 181 129 3 1 30 -29 60 -65z m-1356 -285 c36 -53 90
-128 121 -165 l55 -68 -53 -27 c-71 -36 -164 -66 -230 -74 l-54 -7 -16 59
c-65 233 -71 446 -17 584 10 25 14 20 70 -89 32 -63 88 -159 124 -213z m6222
290 c94 -46 175 -114 202 -168 48 -94 65 -259 36 -342 -20 -54 -47 -85 -106
-114 -81 -42 -110 -42 -176 -2 -133 80 -260 107 -500 107 l-159 0 4 38 4 37
96 34 c317 110 469 235 489 402 3 27 11 49 17 49 5 0 48 -19 93 -41z m-5256
-231 c42 -159 138 -404 200 -514 16 -28 29 -54 29 -58 0 -7 -66 -1 -165 16
-33 5 -108 25 -167 44 l-108 35 0 95 0 94 -50 0 -50 0 0 -65 c0 -36 -4 -65 -8
-65 -14 0 -152 91 -152 101 0 5 45 43 100 85 54 42 154 121 222 175 68 54 126
99 130 99 4 0 12 -19 19 -42z m1111 -130 c-6 -6 -17 1 -31 21 l-21 30 27 3
c23 2 29 -1 31 -21 2 -13 -1 -28 -6 -33z m1193 -15 c15 -61 75 -174 116 -218
59 -64 92 -85 179 -116 l75 -27 3 -131 3 -132 -46 -77 c-26 -42 -57 -90 -71
-105 l-24 -28 -160 77 -160 77 0 269 0 268 -55 0 -55 0 -2 -238 -3 -239 -100
43 c-55 24 -157 62 -227 85 -82 26 -128 47 -128 55 0 8 5 14 10 14 18 0 108
90 133 134 14 22 35 69 47 103 27 75 74 127 146 160 65 29 168 51 250 52 59 1
62 0 69 -26z m410 -14 c83 -12 154 -25 159 -29 9 -9 -33 -160 -45 -160 -5 0
-18 14 -31 30 -19 26 -28 30 -70 30 -36 0 -48 -4 -48 -15 0 -19 -2 -19 -48 1
-60 25 -103 73 -131 147 -11 27 -17 27 214 -4z m644 -131 c119 -28 220 -54
224 -58 12 -11 -88 -47 -169 -61 -66 -11 -318 -7 -375 7 l-26 6 14 46 c7 26
18 64 24 86 10 38 10 38 52 32 22 -4 138 -30 256 -58z m1656 -126 l60 -20 -65
-1 c-67 -1 -269 21 -350 38 -33 8 -1 9 125 7 139 -3 181 -7 230 -24z m-1076
-16 l84 -22 17 -60 c9 -33 19 -65 24 -72 5 -9 -11 -34 -51 -75 -32 -34 -92
-106 -133 -160 l-75 -98 -3 237 c-2 210 0 239 14 256 21 22 20 22 123 -6z
m-4549 -31 c18 -21 157 -109 233 -146 l67 -33 0 -228 c0 -182 -3 -228 -13
-228 -28 0 -186 59 -262 98 -148 75 -156 83 -406 408 -6 7 17 18 74 33 45 12
123 41 172 66 99 48 117 52 135 30z m4300 -317 l-1 -263 -42 -32 c-52 -39
-175 -98 -185 -89 -19 19 -449 571 -447 574 2 2 50 -2 107 -9 185 -21 410 5
515 60 21 11 41 20 46 21 4 0 7 -118 7 -262z m894 222 c260 -49 375 -61 561
-59 l169 2 38 -69 c38 -69 73 -193 60 -206 -18 -18 -166 -39 -278 -39 -250 0
-507 84 -701 229 -60 45 -63 49 -63 91 0 44 20 81 44 81 6 0 83 -14 170 -30z
m-1440 -373 c103 -131 190 -245 193 -254 6 -15 -4 -16 -98 -10 -122 7 -217 25
-351 68 l-98 31 0 69 c0 65 4 77 71 215 58 118 74 143 84 132 7 -7 97 -120
199 -251z m-3214 207 c52 -13 138 -29 190 -35 52 -6 105 -13 118 -15 22 -4 22
-6 22 -178 l0 -173 -46 -7 c-60 -8 -283 -8 -363 0 l-61 7 0 220 0 219 23 -6
c12 -4 65 -18 117 -32z m1030 -11 c0 -29 -151 -203 -177 -203 -5 0 -32 21 -61
46 -51 45 -98 115 -85 128 4 3 29 6 57 7 28 0 92 7 141 14 113 16 125 17 125
8z m327 -7 c4 -4 -208 -380 -222 -394 -2 -2 -31 11 -64 28 l-61 33 54 57 c64
67 125 159 157 236 l24 56 53 -5 c30 -3 56 -8 59 -11z m190 -17 l63 -11 0
-255 0 -255 -52 7 c-120 16 -335 82 -331 101 1 8 193 343 229 402 17 26 10 25
91 11z m-954 -206 l68 -71 -53 -20 c-29 -11 -74 -25 -98 -32 -25 -6 -53 -13
-62 -16 -17 -5 -18 7 -18 158 l0 163 48 -55 c25 -30 77 -87 115 -127z m1319
102 c48 -19 128 -53 178 -76 l90 -42 0 -123 0 -122 -87 -21 c-104 -24 -235
-41 -315 -41 l-58 0 0 244 0 245 53 -16 c28 -8 91 -30 139 -48z m2569 -55 c54
-39 254 -129 344 -155 192 -55 408 -71 575 -41 41 8 77 12 79 10 1 -1 -7 -32
-19 -68 -58 -177 -210 -313 -403 -362 -47 -12 -130 -18 -339 -21 l-278 -5 0
331 c0 182 3 331 6 331 3 0 19 -9 35 -20z m-2120 -162 c33 -18 59 -35 59 -38
0 -3 -29 -20 -65 -38 l-65 -32 0 70 c0 39 3 70 6 70 4 0 33 -15 65 -32z
m-2671 -207 l65 -18 3 -79 c2 -43 1 -76 -1 -74 -4 4 -90 114 -140 178 -12 16
-5 15 73 -7z m4068 -117 l-3 -46 -52 64 -51 65 51 25 52 25 3 -43 c2 -24 2
-65 0 -90z m-2725 90 c-7 -19 -8 -18 -27 11 -16 24 -16 25 8 14 14 -7 22 -17
19 -25z"/>
<path d="M1280 1425 c0 -193 2 -225 15 -225 13 0 15 32 15 225 0 193 -2 225
-15 225 -13 0 -15 -32 -15 -225z"/>
<path d="M4142 1643 c-19 -7 -42 -58 -42 -92 0 -25 -4 -30 -27 -33 -17 -2 -28
-9 -28 -18 0 -9 11 -16 28 -18 l27 -3 0 -140 c0 -132 1 -139 20 -139 19 0 20
7 20 140 l0 140 50 0 c33 0 50 4 50 13 0 6 32 -57 70 -141 65 -144 69 -156 56
-180 -8 -15 -23 -36 -35 -46 -18 -17 -26 -18 -58 -8 -46 14 -70 -1 -39 -24 33
-23 99 -18 128 11 19 19 143 276 195 403 3 7 -3 12 -15 12 -16 0 -31 -27 -78
-131 -32 -71 -60 -132 -63 -134 -3 -2 -33 57 -66 131 l-59 134 -68 0 -68 0 0
33 c0 54 44 82 90 57 13 -7 19 -6 24 5 10 27 -67 46 -112 28z"/>
<path d="M1427 1627 c-8 -21 8 -39 29 -35 27 5 25 42 -2 46 -12 2 -24 -3 -27
-11z"/>
<path d="M3934 1625 c-4 -9 -2 -21 4 -27 16 -16 47 -5 47 17 0 26 -42 34 -51
10z"/>
<path d="M2798 1616 c-57 -21 -85 -42 -116 -88 -23 -36 -27 -51 -27 -118 0
-67 4 -82 27 -118 62 -93 199 -126 296 -72 41 23 52 42 32 55 -5 3 -23 -4 -39
-16 -36 -26 -107 -35 -155 -19 -78 25 -126 90 -126 170 0 141 145 224 273 156
25 -14 48 -22 51 -19 15 15 3 34 -35 54 -53 27 -133 33 -181 15z"/>
<path d="M932 1506 c-29 -62 -72 -157 -97 -210 -43 -94 -44 -96 -22 -96 19 0
28 11 46 55 l23 55 123 0 123 0 23 -55 c18 -43 27 -55 45 -55 21 0 16 15 -74
210 -119 260 -116 259 -190 96z m127 -49 l50 -107 -104 0 -104 0 40 88 c23 48
45 98 50 111 5 13 11 22 14 20 2 -3 26 -53 54 -112z"/>
<path d="M4880 1410 l0 -210 150 0 c127 0 150 2 150 15 0 13 -21 15 -130 15
l-130 0 0 85 0 85 110 0 c91 0 110 3 110 15 0 12 -19 15 -110 15 l-110 0 0 80
0 80 125 0 c104 0 125 2 125 15 0 13 -23 15 -145 15 l-145 0 0 -210z"/>
<path d="M3710 1555 c0 -32 -2 -35 -30 -35 -23 0 -30 -4 -30 -20 0 -16 7 -20
30 -20 l30 0 0 -116 c0 -63 4 -124 10 -134 22 -41 131 -47 138 -8 3 13 -6 16
-44 15 -64 -3 -74 17 -74 146 l0 97 50 0 c43 0 50 3 50 20 0 17 -7 20 -50 20
l-50 0 0 35 c0 24 -5 35 -15 35 -10 0 -15 -11 -15 -35z"/>
<path d="M1430 1360 c0 -153 1 -160 20 -160 19 0 20 7 20 160 0 153 -1 160
-20 160 -19 0 -20 -7 -20 -160z"/>
<path d="M1640 1502 c-105 -57 -109 -210 -8 -272 48 -29 125 -27 172 5 l36 24
0 -35 c0 -19 -7 -48 -15 -64 -28 -54 -129 -64 -201 -19 -28 17 -32 18 -38 3
-9 -24 -9 -24 37 -44 58 -27 151 -27 195 0 54 33 62 68 62 255 0 158 -1 165
-20 165 -15 0 -20 -7 -20 -25 l0 -26 -30 22 c-41 31 -124 36 -170 11z m166
-56 c27 -27 34 -42 34 -75 0 -72 -30 -111 -98 -125 -79 -18 -142 35 -142 118
1 79 39 115 124 116 42 0 53 -5 82 -34z"/>
<path d="M2000 1360 c0 -153 1 -160 20 -160 19 0 20 7 20 100 0 143 22 180
109 180 85 0 101 -27 101 -175 0 -98 1 -105 20 -105 19 0 20 7 20 105 0 158
-27 205 -123 213 -44 3 -58 0 -89 -22 l-38 -25 0 24 c0 18 -5 25 -20 25 -19 0
-20 -7 -20 -160z"/>
<path d="M3140 1498 c-76 -52 -98 -129 -62 -211 32 -73 111 -109 191 -87 52
14 90 45 75 60 -8 8 -20 6 -45 -9 -62 -38 -148 -19 -182 38 -35 59 -31 61 118
61 132 0 135 0 135 22 0 12 -9 40 -20 63 -38 78 -142 109 -210 63z m163 -58
c49 -55 41 -60 -89 -60 -115 0 -115 0 -109 23 27 85 135 106 198 37z"/>
<path d="M3457 1513 c-4 -3 -7 -75 -7 -160 0 -143 1 -153 19 -153 17 0 19 10
23 109 3 106 4 111 33 140 19 20 39 31 57 31 21 0 28 5 28 20 0 28 -38 26 -84
-5 l-36 -24 0 24 c0 24 -18 33 -33 18z"/>
<path d="M3940 1360 c0 -153 1 -160 20 -160 19 0 20 7 20 160 0 153 -1 160
-20 160 -19 0 -20 -7 -20 -160z"/>
<path d="M5270 1360 c0 -153 1 -160 20 -160 19 0 20 7 20 94 0 104 7 134 41
165 34 31 112 29 144 -4 24 -23 25 -30 25 -140 0 -108 1 -115 20 -115 19 0 20
7 20 116 0 132 -11 163 -68 190 -44 21 -114 14 -153 -15 l-29 -22 0 26 c0 18
-5 25 -20 25 -19 0 -20 -7 -20 -160z"/>
<path d="M5734 1506 c-89 -40 -117 -173 -52 -243 55 -59 147 -72 212 -28 l36
24 0 -39 c0 -30 -7 -48 -29 -72 -27 -30 -34 -33 -88 -33 -42 0 -69 6 -95 22
-20 12 -39 19 -42 16 -16 -17 -1 -36 40 -55 61 -26 160 -22 201 8 43 32 52 73
52 252 1 156 0 162 -19 162 -15 0 -20 -7 -20 -26 l0 -25 -32 22 c-38 28 -120
35 -164 15z m157 -54 c25 -23 33 -38 36 -78 5 -43 2 -54 -21 -81 -92 -109
-260 -21 -216 113 25 75 139 101 201 46z"/>
<path d="M6113 1501 c-24 -11 -43 -24 -43 -30 0 -19 20 -22 51 -6 42 22 115
22 140 -1 11 -10 19 -30 19 -51 l0 -33 -67 0 c-112 0 -172 -47 -147 -116 23
-67 131 -92 194 -45 30 21 30 21 30 1 0 -11 7 -20 15 -20 13 0 15 21 15 125 0
123 0 125 -28 156 -24 27 -37 33 -83 36 -39 3 -66 -2 -96 -16z m167 -186 c0
-54 -36 -85 -98 -85 -58 0 -85 23 -80 66 4 38 38 54 116 54 l62 0 0 -35z"/>
<path d="M6490 1503 c-104 -54 -109 -211 -8 -273 48 -29 125 -27 172 5 l36 24
0 -34 c0 -50 -18 -82 -58 -101 -42 -20 -109 -13 -158 15 -18 11 -35 17 -38 14
-30 -31 50 -72 139 -73 43 0 69 6 93 20 54 33 62 68 62 255 0 158 -1 165 -20
165 -15 0 -20 -7 -20 -26 l0 -25 -32 22 c-42 31 -121 36 -168 12z m166 -57
c28 -28 34 -41 34 -78 0 -67 -37 -112 -101 -123 -78 -14 -142 41 -142 119 0
75 44 115 127 116 42 0 53 -5 82 -34z"/>
<path d="M6900 1503 c-19 -10 -45 -34 -58 -53 -20 -30 -23 -45 -20 -102 3 -61
7 -71 37 -102 43 -44 103 -61 165 -45 52 13 86 43 68 61 -9 9 -16 7 -32 -7
-25 -23 -107 -30 -139 -13 -27 15 -56 52 -66 86 l-6 22 135 0 136 0 0 25 c0
105 -125 177 -220 128z m107 -23 c22 0 73 -55 73 -79 0 -20 -5 -21 -110 -21
-101 0 -110 2 -110 19 0 43 76 98 118 85 8 -2 20 -4 29 -4z"/>
<path d="M2380 1227 c0 -27 19 -40 39 -27 20 12 8 45 -17 48 -18 3 -22 -1 -22
-21z"/>
<path d="M4577 1243 c-13 -12 -7 -41 10 -47 20 -8 44 19 36 40 -5 14 -35 19
-46 7z"/>
<path d="M7183 1234 c-3 -8 2 -23 11 -32 15 -15 17 -15 32 0 21 21 11 48 -16
48 -11 0 -23 -7 -27 -16z"/>
</g>
</svg>
